HIERARCHY
ROOT joint_0
{
	OFFSET 0.000000 0.000000 0.000000
	CHANNELS 6 Xposition Yposition Zposition Zrotation Yrotation Xrotation 
	JOINT joint_1
	{
		OFFSET 7.745728 2.152245 124.869995
		CHANNELS 3 Zrotation Yrotation Xrotation
		JOINT joint_2
		{
			OFFSET -6.359406 2.617477 113.975952
			CHANNELS 3 Zrotation Yrotation Xrotation
			JOINT joint_3
			{
				OFFSET -8.187927 3.340103 113.713013
				CHANNELS 3 Zrotation Yrotation Xrotation
				JOINT joint_4
				{
					OFFSET 2.859222 5.755905 159.680054
					CHANNELS 3 Zrotation Yrotation Xrotation
					JOINT joint_5
					{
						OFFSET 22.724274 2.598469 88.906982
						CHANNELS 3 Zrotation Yrotation Xrotation
						End Site
						{
							OFFSET 0.000000 0.000000 0.000000
						}
					}
				}
				JOINT joint_6
				{
					OFFSET 2.312134 -31.513222 90.723022
					CHANNELS 3 Zrotation Yrotation Xrotation
					JOINT joint_7
					{
						OFFSET -0.486389 -150.827950 -17.660034
						CHANNELS 3 Zrotation Yrotation Xrotation
						JOINT joint_8
						{
							OFFSET 15.633850 -16.961029 -297.395020
							CHANNELS 3 Zrotation Yrotation Xrotation
							JOINT joint_9
							{
								OFFSET 5.600098 1.609863 -262.782959
								CHANNELS 3 Zrotation Yrotation Xrotation
								End Site
								{
									OFFSET 0.000000 0.000000 0.000000
								}
							}
						}
					}
				}
				JOINT joint_10
				{
					OFFSET 1.012756 37.963039 88.243042
					CHANNELS 3 Zrotation Yrotation Xrotation
					JOINT joint_11
					{
						OFFSET -2.397430 150.471996 -20.492065
						CHANNELS 3 Zrotation Yrotation Xrotation
						JOINT joint_12
						{
							OFFSET -10.575745 12.779427 -297.765015
							CHANNELS 3 Zrotation Yrotation Xrotation
							JOINT joint_13
							{
								OFFSET 196.311081 2.689713 -176.286011
								CHANNELS 3 Zrotation Yrotation Xrotation
								End Site
								{
									OFFSET 0.000000 0.000000 0.000000
								}
							}
						}
					}
				}
			}
		}
	}
	JOINT joint_14
	{
		OFFSET 1.244965 -96.891136 -118.152039
		CHANNELS 3 Zrotation Yrotation Xrotation
		JOINT joint_15
		{
			OFFSET -2.982971 -16.401871 -443.439026
			CHANNELS 3 Zrotation Yrotation Xrotation
			JOINT joint_16
			{
				OFFSET -42.052063 -15.386002 -460.966980
				CHANNELS 3 Zrotation Yrotation Xrotation
				JOINT joint_17
				{
					OFFSET 177.916595 102.818184 -88.655001
					CHANNELS 3 Zrotation Yrotation Xrotation
					End Site
					{
						OFFSET 0.000000 0.000000 0.000000
					}
				}
			}
		}
	}
	JOINT joint_18
	{
		OFFSET 1.788635 96.476997 -118.463074
		CHANNELS 3 Zrotation Yrotation Xrotation
		JOINT joint_19
		{
			OFFSET -9.555542 8.093691 -443.574951
			CHANNELS 3 Zrotation Yrotation Xrotation
			JOINT joint_20
			{
				OFFSET -48.427551 9.415819 -460.500023
				CHANNELS 3 Zrotation Yrotation Xrotation
				JOINT joint_21
				{
					OFFSET 204.978119 20.223980 -87.523996
					CHANNELS 3 Zrotation Yrotation Xrotation
					End Site
					{
						OFFSET 0.000000 0.000000 0.000000
					}
				}
			}
		}
	}
}
MOTION
Frames: 7
Frame Time: 0.016667
75.563370 256.673096 1135.793945 -22.432788 1.192306 -3.950861 -2.081413 5.434430 -7.399880 -2.254039 -0.635085 1.324971 -2.544362 0.810270 -1.240977 2.547081 7.732454 -4.868896 0.000000 0.000000 0.000000 -0.723584 24.166329 -9.534988 2.713279 10.053507 -16.924135 -171.598426 -86.081090 172.612531 0.000000 0.000000 0.000000 -0.865236 -8.791725 5.098664 -16.339734 -4.873671 4.046420 -20.487072 -40.867711 -16.050163 0.000000 0.000000 0.000000 -6.521468 0.385472 -14.892897 -8.412555 8.656137 -5.245730 -9.851108 22.231790 -17.398032 0.000000 0.000000 0.000000 -2.178507 -19.852496 18.369727 -6.540412 14.920824 -0.786979 -8.492307 15.540852 -5.276219 0.000000 0.000000 0.000000 
95.522469 276.736023 1127.772949 -25.154025 0.350659 -3.588674 -1.589030 5.657787 -7.244750 -2.028306 -0.671049 1.355233 -2.372757 0.829183 -1.265855 2.471633 7.603179 -4.870384 0.000000 0.000000 0.000000 0.396910 24.005564 -9.032273 3.318239 9.967461 -18.259544 -171.318728 -89.818738 170.444376 0.000000 0.000000 0.000000 -1.280274 -8.867199 5.012669 -16.131252 -4.900345 3.539703 -20.607626 -39.899226 -16.030405 0.000000 0.000000 0.000000 -6.707371 -0.499671 -16.547755 -9.267073 9.539587 -5.800772 -11.356926 22.767009 -18.265411 0.000000 0.000000 0.000000 -0.815667 -18.948260 17.370206 -4.544360 18.623416 -0.756552 -7.846642 9.915489 -4.276174 0.000000 0.000000 0.000000 
113.139977 295.146027 1122.974976 -27.290578 -0.176876 -2.997875 -1.339674 5.829542 -7.393345 -2.030933 -0.684895 1.383175 -2.408185 0.863559 -1.241584 2.370926 7.529912 -4.738252 0.000000 0.000000 0.000000 1.498172 23.064556 -8.367741 4.753026 10.224334 -18.658255 8.996609 -85.525476 -12.024930 0.000000 0.000000 0.000000 -1.189669 -8.855979 4.468663 -16.030613 -4.926141 3.912373 -20.647088 -38.730604 -16.055365 0.000000 0.000000 0.000000 -7.399042 -1.895170 -17.899939 -10.604831 10.467677 -6.723275 -13.843833 22.533596 -18.962317 0.000000 0.000000 0.000000 0.261739 -18.382002 15.951630 -2.890471 21.168242 -0.855958 -7.189759 6.299080 -3.560713 0.000000 0.000000 0.000000 
129.052414 312.607544 1120.147949 -29.005310 -0.495480 -2.193580 -1.243770 6.021848 -7.839098 -2.201508 -0.696430 1.451461 -2.603700 0.918716 -1.195097 2.259898 7.466631 -4.537738 0.000000 0.000000 0.000000 2.631632 21.527234 -7.474365 6.566472 10.610836 -18.491203 9.312285 -79.890890 -14.574409 0.000000 0.000000 0.000000 -0.747172 -8.811369 3.595446 -16.003155 -4.935111 4.913249 -20.615673 -37.454094 -16.113019 0.000000 0.000000 0.000000 -8.313715 -3.634666 -19.060052 -12.143032 11.428597 -7.949713 -17.216599 21.475758 -19.315319 0.000000 0.000000 0.000000 1.314619 -18.107621 14.121633 -1.227174 23.392862 -1.142548 -6.393494 3.409409 -2.892212 0.000000 0.000000 0.000000 
143.514603 328.441803 1119.343018 -30.371382 -0.702409 -1.554436 -1.204703 6.209363 -8.127041 -2.339263 -0.728615 1.485852 -2.743584 0.970591 -1.144105 2.167127 7.463612 -4.354116 0.000000 0.000000 0.000000 3.455393 19.710015 -6.526075 8.328104 11.002745 -17.892131 9.596092 -73.803667 -16.567350 0.000000 0.000000 0.000000 -0.350681 -8.730601 2.737397 -16.003060 -4.880125 6.141718 -20.468055 -35.883821 -16.174201 0.000000 0.000000 0.000000 -8.814961 -5.042383 -19.549970 -13.011479 12.358378 -8.968053 -19.981718 19.762312 -18.904936 0.000000 0.000000 0.000000 2.215664 -17.888698 12.577020 0.087333 25.039436 -1.596997 -5.788635 1.605806 -2.436905 0.000000 0.000000 0.000000 
156.480515 341.889984 1120.879028 -31.328091 -0.852931 -1.382109 -1.187870 6.342055 -7.918157 -2.294517 -0.772500 1.445034 -2.665667 1.008902 -1.105263 2.103087 7.559441 -4.241553 0.000000 0.000000 0.000000 3.667995 17.794372 -5.601547 9.813970 11.309948 -16.848851 9.791067 -67.484318 -17.550755 0.000000 0.000000 0.000000 -0.293920 -8.639337 2.065939 -16.033186 -4.744092 7.450494 -20.197697 -33.806483 -16.268895 0.000000 0.000000 0.000000 -8.927651 -5.747427 -18.904292 -13.046293 13.380954 -9.457725 -21.075719 17.396805 -17.619884 0.000000 0.000000 0.000000 2.846904 -17.742130 11.903210 0.765123 26.079836 -2.280627 -5.711614 1.279793 -2.363645 0.000000 0.000000 0.000000 
167.866119 353.222931 1124.703979 -31.830015 -0.921391 -1.504704 -1.220463 6.411241 -7.461675 -2.145032 -0.801884 1.414048 -2.471786 1.039359 -1.077162 2.065857 7.732804 -4.191335 0.000000 0.000000 0.000000 3.360307 15.781066 -4.547146 10.880058 11.328939 -15.482327 9.888248 -60.608493 -17.594345 0.000000 0.000000 0.000000 -0.436177 -8.541324 1.422581 -16.103977 -4.555303 8.977496 -19.837964 -31.229037 -16.443940 0.000000 0.000000 0.000000 -9.006780 -5.984781 -17.382780 -12.723414 14.487688 -9.561368 -21.037216 14.456685 -15.837880 0.000000 0.000000 0.000000 3.259601 -17.763339 11.780235 0.981764 26.696028 -3.168169 -5.988953 2.193711 -2.574824 0.000000 0.000000 0.000000 
